<mxfile host="app.diagrams.net" modified="2023-04-19T08:03:23.934Z" agent="Mozilla/5.0 (X11; Ubuntu; Linux x86_64; rv:109.0) Gecko/20100101 Firefox/112.0" etag="OhMo8NCNCiBA8Amvf3Ej" version="21.1.9" type="github">
  <diagram name="Page-1" id="_drz3nclEvHqQ4YwFf96">
    <mxGraphModel dx="978" dy="579" grid="1" gridSize="10" guides="1" tooltips="1" connect="1" arrows="1" fold="1" page="1" pageScale="1" pageWidth="850" pageHeight="1100" math="1" shadow="0">
      <root>
        <mxCell id="0" />
        <mxCell id="1" parent="0" />
        <mxCell id="LKAqJjBEfYWG2EYr2-bb-1" value="" style="shape=image;verticalLabelPosition=bottom;labelBackgroundColor=default;verticalAlign=top;aspect=fixed;imageAspect=0;image=data:image/jpeg,/9j/4AAQSkZJRgABAQAAAQABAAD/2wCEAAoHCBUVFRgWEhIVGBgaGhoeFhoYGBgaGhoZGBgZGhgZHBkcIy4lHCErIRkYJjgmKy8xNTU1GiQ7QDszPy40NTEBDAwMEA8QHBISHjYrJCc0NDQ0NDQ0NDQ0NDQ0NDQ0NDQ0NDQ0NDQ0NDQ0NDQ0NDQ0NDQ0NDQ0NDQ0NDQ0PjQ0NP/AABEIAOEA4QMBIgACEQEDEQH/xAAcAAABBAMBAAAAAAAAAAAAAAAAAgQFBgEDBwj/xABQEAACAQMBAwgGBQcHCQkAAAABAgADBBEFEiExBgdBUWFxgZETIjJyobEUQlKSwTNTYoKistEVFyPC0tPwFiQ0RFRjc5PhQ1Vlg5SVw+Lx/8QAGAEBAQEBAQAAAAAAAAAAAAAAAAIDAQT/xAAmEQACAgICAQMEAwAAAAAAAAAAAQIRAxIhMUEiUWEEFDJxE5Gh/9oADAMBAAIRAxEAPwB9DMMzGYBnMMzGYZgGczOZiGYBnMxDMMwAzDMxmGYArMMzGYZgGczEMwzACGYQgBmZzE5mcwDOYZmMwzAMzEMwzACGYQgBmGYTGYBnMMzGYZgGYTGYQDGYZicwzAM5mcxOYZgCswzE5hmAKhmJhmAKzDMTmGYArMMxOZnMAzmGYnMMwBUInMIAqGYmEAVmGYnMMwBWYZicwzAFZhE5hmAKhE5hmAKhmJhAFZhEwgCcwzE5hmAKmcxOYZgCszExDMAzDMTmGYArMMxOYZgCszOYjMMwBeYZicwzAFZhmJzDMAzCYzCAZhMQgGcwzEwzAFZhmJzDMAVmGYnMMwBWYZicwzAFZhE5hACETmGYAqGYnMMwBWYZicwzAFZhmJzDMAzmGZjMMwDOYZmMwzAM5hmObSyZ95OyvX0nuEmbfS6Q4qWPWSfkMCYT+ohF13+jaGCUuSvZhmWapp1H82PAkfjIu70sDfTbwb8DJj9VCTro7L6eUVfZG5hmJYEHB4wzPSYCoROYZgCoROYZgCoROYZgCoZicwzAFZhmJzDMAzmExmEATmGYnMMwBWYZicwzAFZhmJzDMAVmGZmlTZzhQSeyPRo9XpVR3sPwkSnGPbouMZS6QxzDMkBo1TpZB+sfwEWNGbpqIO7J/CR/Pj9zv8M/YjMxS7iNodu/pEkl0feP6ZfuE/jIXWNqlWIeoH2gGDAY3cMYycYxM551L0xNIYXH1SJulcxyl3KvTvO2PbauW4TyOB6VIn2vI3e6jBVdzhFJP+Ok7oivaV1/7Jz7uG/dJnNUitmYvKgO+aMxpdekA9am470YfMSU0RKFSkrOzhwSrAEcVO7o6sHxnqx5VBVLo82TG5S4G2YZkx/J1v8AnH81/sw/kyj0VH/Z/hNPuofP9Gf28yHzDMmP5JpdFU+Qja800IMpUDdhGD4b5S+oxt1YeGaV0MMwzE5hmbGIrMMxOYZgCszGZjMMwDOYTGYQBv8ASl7YfSl7Zpe1qL7dCqO1QlQfIGaGrJ9aoi9lQPT+OcSbJ2Hv0pe2H0pe2aEos29Arj9CrSb4HB+MS9Mr7dOovfTcjzR2+UWNhz9JXtmfpK9sYJUQnAq089W2UbydB85vNFsEhDgDJI2X3Dp3P+EWLY6ttRKE7I3R1f64UwCTnHzkZZpllHnIrXLjadj5TxuKlJtntUnGKSJh+Uh7ZqflE3bK7Rs7l1DpQdlIyCMbweB4zC2dwfaplO18oPMiUsK9iXm+SdbX3jLU9RLspPQCPjIYo+SBsHBxkNkHHUQN47Yj0jbWG4jqnVBJnHNsmKdxJGxvipkDTeOEeHE6mWCx5SDec4yZJUuUg+1OeOrITuJXOQR0Z6DErdjrnHhi+Slla4Oo0+UI+1HKa0rccHv3zlSXZ649srtifaPGZvAilmZ0a+r0XX2Qp6CuFPw4+Mp1fU3Riu1nB49Y6DJe59ZEbswe8Sv3WmNUclKhU4G7Y2s8enaGIxwV0Mk+LHC60/XH1e+dgpBwCPjKxc2r0XC1Nr1hlSV2c4ODuyezzkxbPtJ3S3BIiM7JChXGyMneOM2+nXr+cj6QyeB8AT8geybzRYbyMDrI3ec9MZXFHmn6ZNDn0y9cPTL9qMsqeDZ931vlmLWkTwDeIH4GVZnsOvTL9qY9Mv2hG5onq/x4zHo8dKjv/wCkWd2HPpl+0IRrsfpL+1/CEWNhwdDu6W+1ulYDoLsV+KE/GNK+v3NL1bqha1B0n01MfBt8jNN5cOpxUqKAPtVb0nyU4luseV9OqADUZv8Ah0b1j94Nmc5J5K/T1TTKp9eitNulqdVU+JKiSVpbUW/0XUnXHBWrUn+RJ+MmK+n0LgYCV++tQ1DHxdRIa95DsAfR1XXspUqw+FS6xFoWh29nfYPsXC9G0lP5l2PwkZcoRuq2K0nzudQdnIOeO4ZxndiNl0zUaIxSp3D4/OUKZ/8AnabvpV04CXabDLvVPRrT49Pqsc8OzpkTdRZeONyQ5tjsq79S7u8yr3oLsEX2nYKvHi5Cjh3yx3j7FHtY/ASE0jT6dzcCnWfZQIzMdpFO7AUAuCvFh0HgZlBHpyOkWD+Rq6nL2mnVMDAamtZXwOHrbPGJYvTyz2dxSABJcXNVk3DO5WyB5Rf+SKUv9EqqT1tcW6n4W7Z84w1ijqFGm3prlWpN6mytVHJDbsYFJSwxnhiehs8i5dEFSJO9jknJJ6yd5Mb1qW24AdFOGOXdKanZUnZ2nIGTjA38THS7hDS7m1Wo/wBL2NkqAAz3CHed5HoEba4DcxA7+jOPLPTJ1Ej6FwD0x0tWT13S0aop9FdLRqbsORd1MY7HwCJGryeLn/NbyhcdeytZG8grD4zrgRHIvI0NWaKzqeIB7wJLtyQvVxtIAP0VqufJUxnsJEa2+j3FOrmpZXNRBwDWlR1J6yi1FyOwnHZCiHNG/QOTT1x6VqLmkMgBSys7bsFcKcqN+8dI75oubQ0KzIadRBgMoqDDbJ3Z38RtBsHsljL2pXD6Ndq32qdgi+QZ2lb1GnQV19Al0mdr0i3FGnSxjGxsimAD9bOeoTslwTGTci22D7dAj7Jz5xpsAtgsi5BGXqCkoPEeuyOOzBHTxiuTlTIZOtTMXBZTlMbQPq52MZ/XVl8SCB1TzriSPTJbRaIjXabBVYqmyjD11ubWrkN6uNmmiPx2d+CPmNmlVOjrEsOo6feVKTI2kqzFSA63NujBiNzYVFBwcHHTiU/TahGM5BG4g7iCOIIm00YYpeCdoNhhltkZ3nqHb2TeLikrkmpar+mHoK3jtJ+MbMd+QcdIx1xzb3rK20NYojcM07ircsVON4Yh1yZzG+0My6Zut7gVG2UuEqE8FV6G14ejdGiqlFw2w1vX7Ga2uqy/eWs/yja6qrVOalzodQ9dQ1s+ZeIp2TbJanR0iqB0WzXbt92ntGamBvak+MGgOxkt71D5Pa1BNbV9jG2uxnpZrqmPP6EomujUQqRVsbuk32qNG6I8C9QfuxdK4RBgXF+B/vNPpP8AFkJgDjb/AEqf/qqn9zCNvpif7VX/APaqH93MwDOr6Om/aOvVu4bQ/aUfKVa9sKi7qFrqo7ahZf2Vp/jO2lKmzj0iBukimceClz85DX2jXj52NUdB1LQp/PIb4zikcUjlNndV6e+rb6i2OI9PURfIU8/GWDSuVRyBT0y9c8D/AJ5dP5qVxJW85vrqpnb1es46dtXx5ekIEq2ochqNHIfVbUEcQfa+6rE/CVaZVpnQ6N7XrgCppFUL+nWp48Qxz8JXLimgqOKdJKa7ZARMbIK+qeHHJBOe2UEWiq6pRvRUywH9GtZeJ3n11WX20T1h1D8Jjm4pG+GNNsa67UxhfsiRmn8k7q7U1aC0SoYqPSk5JUAkgYII3439IMVrFfLMe+WTk/r2lLa0qFespYLmor06pG05LsM7OycFiPCdgqGaTrghXsby03t/JKHoLC3VvDaAYxne8ori5Ap12osqMGHoRgbWCN5G47mPDrlwA0Ftw+ib/eX+EacpOTFFaaVdPotxO2iLVfaBxhlGDvHhkE9QBuXKMYyWysqVQ4EtPJa9tUtQr31KjUd3ZxikzA52Vz6RWHsqvnKteWlcKcWtxn/gVB81kReUW2gw090A4h/Tttd5yvwxJjH3NMjT4OgX+k2Nf29bHdt26DyUKJtXkx6m3S1y6KdBps9QeApvKTY8sHtyPR2FkrDpNF9r7xfMm6fOxcj2rage41B/WM0pmVM037XNL8lqWqVD0ZoV1Xx9JUHymux5WVqe+5qai2OIDIgPftKT8ZJ0udioSB9DUnqWo2Sez1TLRpXKS/r4I0pkU/WqV/RjyantHwBj9oO/KK9/ONZsuzUoXbDp/pTk/dZZA6trOmVV/wA2tK1OuWXDsxK42htBs1DxGejjiddu1uHUej+jo/Tth6qjuxsZ8fKUvWORmoXJ/pL+kRnIQIaa9xCjf45k8CLSZDcnq+y6yW1CnhmErGlOQRkEEHBB4gjiJbtQGQrdaieaapnui+CvaXyVvEPpaFjaVVY5Q1GLYGd3qs4APhGNxb1qVZ1uaS06jEuUUgoA7EjZwxAXjuzuxiTH0bVG2msrgrSTcVNRECnGTubcBvz5ytV7+vUq5ua6VXUBQVZX9UEn20GyRlj09M9H5Rs8y9MmiyU2yoPVNtPVERlpVLSxdTk+kuSine28ZKktjI84zsHypEe2thaVXAvtkIFOy7OUCsSuMsCOPDf04mUHUjXIrix/fWen1lwt3plA/wC7pW5IPYzMPlNNrpLKMUeUdML0BfR48hVm0cltEbctzT/Vuk/EmZPN9pbezdOO6vRPzUzezyWbl0y9+pr6N+rTP9czculan9TWqZ76SfwMYVebWwClvpVYKBkkvSIAHTnZlG+lWNtcbVGk10i8DWYKpI6QqjeO/wAoXIXPR0X6Fqv/AHxb/wDLp/2JmV3+dT/w+n9//wCkIpimWzT+R9dPyur3rH9Byo/bLyyW1kEGDUqv2vUYn4Yx4Tz9p9zfVDi3qXbnqptVbH3Tulv0vQddbf8ASK1Idda4Yj7oLEeUNfIcfk6Bfck7Sv8Alkqvn7dxcMPIvgSMfm3088KTjuqP+JM2abyfvl319WqN+ilNP33Bz92WA2RKbD1qzdb7YRz+tTVceGJN/JNteSi6vyLtLTYq0vS7ZfChnBXGydo42c9XT0zSjbKO3ZgeMc65p9OjXIRqjEopc1KjVDkliACxJG7B8ZH6i+zTA698xm7ke7EqgVjV64CknPgcHwPRNelapp1P8rp9aoR0tc5H3VRR4HMmdF5N/T6joahRUQMWChjtM2FXBI3YVz+rJJ+aM/Vvge+jj5OZvCkuTDJJXTNmn84en0RilYNS69haQPiQQTJNOdSyJ307kduwhHwfMqmqc3PoBmrqFsg6PSbSE9w3k+EqdOyoB9mpdrs/bpU6j/suEMqkzPVM7DT5ytPPF6i99NvwzH1py6sqrbFOs7MeCrQrs3kqkyhaQug08GpUrVW/3qOF+7THDsJMuun8sdKRdmjXp01+ytKog/cAktIlpexOX2pMqhktq9YkblVAp/W9IVx5ZlE1zXtTbIo6SUG/1jS9M3YRgbI7sGXBOVli3C8oeLhfniOaWu2rezd27dgrUyfLanFx4C48HEK6ant+kNK8R8Y2lp1KeB1AIoAmP5Y1NONe9HvNVP7074l0jezUQ9zqfkZuGZW3wd2+Dz6nLXUB/rdTxCn5ibl5wNSH+tHxp0T80nZ9a162tlzc1kU9Ce057kGT44xOZ8oOcYVMraWtNR+cq00d+8JgqvjtTqd+Dqd+CF0y7ZyXc5ZmZmwAPWZiScDcN5O4S80226Cn7Jx5znOl3TO7MxyxOTuAG/qA3Dwl+0N9qm69mR4Tz5VyevG+DFroFO8c0qtWsihdoLTYBWIKj1lYEEjIx4zGqc21GhSqVqNasz00ZlVtghtkZI3AHgD4xrqN5VoI1W3fZqKCQ2yrbvrDDAg7s9EgafOPqAGGqo/XtUqe8Ho9UCXitxMsqalaHWm1eEfXVAOjITgMCM4zjPTjpxxkBo9cFVkzVvQBns6Zm00zZNUb35pqv1bukerKOPlmQ2ucgatonpK1zbBegbVTaY/ZVdjeZfuRfKC7ulUC2RaSAL6Z2b1io2cquPWO7fvAG/fGmuc3lW6qGpV1FmP1QaHqqPsqA+APDznoTfk8dtPlkNyP1rSbNQxaq1Yj1qjUuHWEAJ2R8TLYOcLTW4128aVQ/JTKo/NK/wBW8Q99Nh8mMbVeae6Hs3FufeNRfkhj0vyHq/Jdf8vNL/Pr/wAmr/YhKJ/NVe/nbb79T+7hFL3OVH3EUOdC8UACnb4HAbDAeSuI9o87Fce1a0T7pdfmTOcRaKSQACSdwA3kk8ABK1RdI6hT53PtWXeVrfgU/GPafOxbn27asPdKN8yJRtL5DX1fBFuUU/Wq+oPI+sfAS5aVzUIMG6uWbhlaQ2R2jbbJI/VE41ElqKIe/wCUtO4uHqUdtVYJlXCggqgU4CkjHqjzMRf3+2MnAwJ0qx5IWNFSqWlM5GCXG2xzx9ZskeGIq25KWSPtrbLtA5G0zuARvBCuxA8pk4q7RpHMkqKhyaq3trQdqOnPVaqwcOzqihAoCernbO/aO/Z9qQ+tatrlTIajcU1PRQpOB99ct+1OwwlJ0Yudu6PNlzptzktUoV8niWR8nvJEYMpBwQQe2eosxaUds4IB6875WxW/weWIT1LcaBQYevQpN71ND8xIS45N2ABZ7S2VR7RKIgHeQBiFNM7sedYTpXKTUNEp5WjaLXcdNN6lOmD2uG9b9UEdsqOm8oDb1C9C2tlOcrtI1TY91nYkd+ZR1Ox5oXIe8ucMKfo6Z+vVyox+ivtN4DHbOl8n+b22t8NUZqz9bEqmexAd/wCsTKZT51bwe1St2HuuD57f4R7T52qn1rRD7tRl+YM49mS9mdNqadRb26FJveRD8xGjcm7I8bK28KKD5CUejztofbs3Hu1Q3zUR7T517T61C4HcEPzcSdWTUjPLrk5b0bda1vQSmyVE2yi4yj5TH3ikieTdbDgde7zkjrXL6xubarSzVVnQ7O1T3bY9Zc7JP1gsq2l3ezhhImnR6MLdUyw6hSyHUjrEdpzXWTqrJWuQGAIy1M7mGR9QdcgdR1gnLbhu6J0PR9Wt1oU0F1RqOlJA4pursSqANhFJY7weAk401Yzy6orS819Jd9O7qr7yIw/CU29q2lvcBalVrymntCmopITn2S20xcdeMDtMkOXPK65r7VKnSq0bfg20pVnH6RxuX9Hz6pz/ABN0vLMo7Vyzr1vzpWiqFFrWRVGFVPR4AHAAZGBHlLnSsjxS4XvRD8nM4pCNUNUd2p84+nHjVde+m/4AxzS5e6c3C7Ue8lVfiUnAIRojmiPQ3+WVh/tlLzP8ITzzCNENEWzWOVdGpkUNNs6Q3+saas3YRgKo8jGGkcqrm2/INTXr/oaOT3ts7R85BQnaKovVPnRvRxWg3vI34MI/oc7NYflLWk3us6/PanNoRqhqjrlhzrIx9eyYD9CqD8Cg+cmU5zrM+3bXK9oWkw/fB+E49pIDAg8Qc+B//JM3NEGmCo4bj4TOSVlKEaOlDnG0/O+pUT3qTf1cx3b8t9Pf2btB7wdP3lE4Tep0x9ofJi6uz/QUWK9Lt6qD9Y8e4ZMpRVEOCR3ejyhs23LeW5PV6VM+Wcx+mtW9FWercUlUfWLrjuGOJ7BKDoXNdRTDXdQ1W+wuVQdhPtN+z3ToGl2tOjsrRRUX7KqFG/sEiSRnwnwUvXudmmAUsaYc/nKvqr3qgO03iVnKdd124uWJuKzPvyF4IO5BuHfxnp+rZ03Hr00b3kVvmJX9R5L2LHJsrffxxSRfiAIjJI0ckvB5ohPQFfkJpzcbRR7r1F+CsBGNbm009uCVU92of64M02Q3Rw2E7HU5qLU+xcVx3mm3yURhW5pBn1L046mo/iH/AAndkNkcrhOjXHNNcD8ncUG94OvyDRjW5sL5eHoW91yP3lEbI7sijx9aVnUeqd3UZOfzf6iD/ohb3alJvk8meSnJKnVrFb65o26ocPTarTWq5+yBteqO3ynJNFRZDaLoN3fts0xhAf6RyCEUdp6T+iPhOxcmuTVCzTZorlzjbdvaY9/QOwbpZdPoWyU1pWxpBFGFVGUj4Hee2aKCZbsEz28Gc22x/bUd0TdWCMCGRG71B+ceW6zXfVdlCek7h4/9Mya4s7qqKpW0O1b27S3b3qSH47MaVOSVi3GzoeC7P7uJNwlWZWyr1Ob/AE1t/wBFx7tSqPhtYjSrzZ2B4LWT3an9oGXOE7bGzKH/ADVWX526+/T/ALuEvkI2Z3ZnmKvZ1E/KU3T3lK/MTRiepDv4xncaTb1PylvRf36aN8xK3L3PM8J6A1DkrpgQvWtqCIPabJpgfrKRic25SVNHTK2tGrUb7S1GVB4uGLeAx2yk7KTsqWnVNmoO3d58PjidP5PciLu4U7VP0KHBD1AQT7qe0fHA7ZUuTvK2naYK6fRZx/2hZ9vwLbQX9UCdP07ncpuqmpaOueOw6vv6faCyJ9plpvofaZzbWdv61RTcOPrVANgH9GmPV88mTQXG4AADcAOA7pE1ucuxziotdO00ww/YYmNV5d6c7brpV95Ki/FlAkqzKadlhgDI2hr9o+5Lugx6hVTPlnMkEqK29WDdxB+UGZNUzkRtfLumyzbKiKuFyDI6ZfgioQhLICEIQAiK1VUUs7BVUZZicAAdJMZazrFG1pmpXcKvQPrMepR0mcU5Xcsa162zvSiD6tMHj1Fz0n4CdUbOxjZaeVPOE1QtRsSVTg1XgzdYT7I7ePdKvp6cSe+Q1ku6TtEbKd8S4PTCNIa6gwCsxA4bt3SdwkdptZ03pUdPcdl/dM3axU3Ko6Tk+H+PhM2FHJAnVxE6+WWm2167pUvVu7jJ4Zqu2PBiYx1Dl7qKsFF4xwMnaWm28969Xzmq/cA46FG/8ZU6z7TEnpMRVs5LouNDnMv19p6Te9TA/dxHtHnWuh7dC3buFRT+8Zz2EvVGeqOo0uds/XsgfdrEfAoY/pc7Fsfbtq6+6Ub5kTj8I1RzVHZ/51rP8zc/dp/24TjEI1Q1R6W1TV6Fsu3cVUQdG0fWPuqN7eAnPdd51OK2VL/zKvzVB+J8JzK5uHqMXqOzseLMSSfEzROKKCiiQ1TWK9y21cVnc9AJ9UdyjcPASPhCUUEl9Gq7ivVvHceP+O2REdWFXZdT0HcfH/AnJK0VF0yx3i7SBukbj4SvXqdMslHeGXsyJDXlPiJnFlSRERaVCpyCQesHB8xEEQmpmT+lcoLtPYu7hcdVWpjyziTqcutRTheMex0pt8WXPxlKtGw3fHFZyTjPhIa5KVUW6lzm3wO8W7+9TIz9xhJS3516o/KWdNvcdk+atOeok2KnUIdE6o6lQ51qB/KWlZfcZH+ezLBY8pDdUHqWVrWdhuUVdimhb3yxBx2Sq8jObZqmzWvlKpxSlwZu1+odk6vTtlRQiKFVRhQBgAdQEhteCJKK6OBcoeT2r3FQ1Lm3d26ApRgo6lVWOBK5V0K6T27WuvfScfhPTNenMWy+tK34OKTPN9smCFbceo7j5GStQ7gOyekVoKw9dVb3gD84wvdAs3BapaW7YBOTTTPmBmQ3ZtGXB5fuW2qp6l3eXH45k1pVPGXPACdhTm80595tdknpR6ifANibavNlZbOyjV0z1OrfvqZ1y/wRkmcL1WvhT1sfh0/w8ZBTsetc1SM2Kd44C7vXpq2/p3qy9nR0SCuOae4H5O4ot7wdPkGlxaSJlJNnOYS53PNrfr7KU6nuVF/r7Mja/Iu/T2rOqfdAf90mVaOWivQj2vpVwnt29ZfepuvzEZTp0IQhACEkbrRLmn+Utqy46TTfHnjEjiIAQhCAEIQgFnsK+0qt5/IzXqNPDHtjPRqu5l8R8j+HnJS6XaQHq3TF8M1XKK3VpHaMwKBkj6OKWj2S9idRhTpEEEcRN2yc5PTHq2x6pOaFySuLt1WmmFz67t7Kj8T2TjkhVEJp9hUrOtOlTZ3bgAPieoTtHIvm+p22zVuAtStxA4pT7us9snuTHJehZJs0ly59uofaY/gOyWJFkOTk6RDlfCGtRgvtGJV1PAzTsFsseJiWoyaM7NlRIUU3+A/jNOyRwJju1WGEPEG6absZXHXHExs5in0jRrihtapN9V8Ak9AilXEjtUrjGwDvPtdglU6o5+KI1mySTxO8zEITpiEIQgBmaa1qj/lKaP7yK3zE3QgEd/IVr/slv/yk/hCSMIsWKE5xy94GEJSLXZyOtxMRCE0NAhCEAfaR7fgfwk+fYaEJlLs0j0NacdU4QkspDylO3ci/9DpdxhCQcn0T02LCE7j/ACMUMokwhBAhpvtuiEJxhdjuQNz+UbvmYS12VLwPqPsnukUeJhCWyZeDEIQkkBCEIAQhCAEIQgH/2Q==;clipPath=inset(10.89% 0% 15.78% 0%);" vertex="1" parent="1">
          <mxGeometry x="170" y="87" width="120" height="88" as="geometry" />
        </mxCell>
        <mxCell id="LKAqJjBEfYWG2EYr2-bb-2" value="" style="rounded=0;whiteSpace=wrap;html=1;" vertex="1" parent="1">
          <mxGeometry x="460" y="80" width="145" height="110" as="geometry" />
        </mxCell>
        <mxCell id="LKAqJjBEfYWG2EYr2-bb-3" value="" style="shape=image;verticalLabelPosition=bottom;labelBackgroundColor=default;verticalAlign=top;aspect=fixed;imageAspect=0;image=data:image/png,iVBORw0KGgoAAAANSUhEUgAAARcAAAC1CAMAAABCrku3AAACClBMVEX////z8/Oqqqr4+Pj7+/ulpaWjo6OsrKz5+fm5ubmgoKCzs7Ovr6/y8vLt7e2xsbHFxcXV1dXk5OS/v7/b29vDw8PT09Pi4uI1bR3Nzc08fCA3cR4zaRyfvfCrxfKxyfNCiiMuXRqVtu4/gyIrVhiZmZm5z/Q8fSBAhSJmZmaOse1GkyUtWhmjv/DJ2ve4zvRKmicoTxd6enqRAgKmAQHS4Plubm5aWlrs8vyFhYWNAgJ6AACvAQGbAQH78ONMoCgANADSwKlrh503Ny3b5vq8AQHJAQE3PVoAAAA7mQCBgYEAQAATVAAZQACVt4kAMwDi8N0zkACGnbJ0TzmIZ1DJr5yVqcVhf5e5zd7R5sm+3LNytlmBumtanz42hgnX5NGivphyn2GIq3tXi0JhhlNFeC+1xq9jg1cESQCntaJ8kXSvuKxgcllKYUK93bOSx399vWWMpoKVoJBfrz2xyahllVPStrbDm5uNLS2kXV2XQ0OIGRm2gYE4VSyqb2+RNjZeelTb7dSo0Jp1kWtIcDiMtnxln03g1MWkj4UhJE4pHSBsV0SmusxDZH5QTkSXfG47RE0vN0FjTVKwn41KODYDFyA8UFY/OUg5WncjIzRJKS6QdFkVHk1ZQCc0FAAVMz4iKyMqAxoAAB8EGycwHScjKyZBFhwkAABXZnRrQic+KhIACEkhGwAAACehK+nQAAAd/klEQVR4nO1di3/c1JW+eo1Gj5E0kkZCNLZhQIYxcRym9TwS1kmIaXGIIaRJ6oSQAAUaSIASWrKFstvSRyjJOqahW1qWbbe7bWm3+z/ufej9sjT2jHHg+yWOMw/p6ujec8853zlHAHyFyYG9o083MihjsuejJ3u6kfGVXLYZzNlzr589sdOjGBtYfaSvnX1mBeOZcxW/aI50usmDEkb51vmVQx5WnqEqfbM2yul2AExzhC89+/T+AIcOVRKMM8LpdgvOP/1QBPuf3enxjAOUVvkr5y48FMOFJyt8Wap8up3BCPrlniQuNMp/mat8uh1CNbUJcfHCfQlc+EH5b1cQ4c6i8kCfu++BBO57vvy3laqn2yFUWkfYuXnhgbuT+G75Q+yWdVRJ73Z73WPui19L4SW59CF2i96tAMrqdTqd4ZtfuyuJHzLuaGbzFxdl7Tpb4ARd7HT6zsvH9yTxMzgPSvqf1c2CnUEZ/UI5NO80gM614HwByvF799x7L/5775496O/xl+GHTJEpc77d4gds6jfaEpwo8F+K03ROHEK9+b17k8D6mK2VmXq7xW8shKLRvIUvui5JwBE4BsBJYV+6//6993vYu3fvpZe9jzv8Do51m5Ebl6o3Vc7wrY0W1wCSxXv/feWJhyN44tXgO8rm6ne3xKWy5aIbnNqs+/+zRBsAUZFs/4WoYCJigVBbm5xvt8glDcaSOS1iluqiBa1il9Ws8LXLDx9eRUJZPbz6SvzbJdXvFx4JvasLnGRGY/YUh2aAXQNObCawl68chnjtlZQbURcLVetu0buRfRpux7QWdyNZSUZC0iRgpvdzKse1ahVZv7tln/bsOtaEdpudfFOr4UuXHKBX0QuKm+8d7ha7DkHRON5JxxuaIhEU/EcRqx1R3k2XnwmGlzgja3fVRRKKpVwKsG7VwzbFHGJxpDD7pKG0aC7b8ad4b/+20Uxxq7OnTI763ZE4w2B5eVD2EpimzLWU7HgdK/DebuuguICY8Rnm9Te+//03zhUQa63MkMLk41KDmfYcwvzy5p+Fdpu/HWdcsyb6o1fRWuIyruX9lZWVQ4fgj/P55oqepX4nHsecnWtPYbTn5utFH6QcPmK3pf1p0w32JREpHj61TYET+wNe7dDK2fxT8Wn1O+l1ND83NTU/Pz09Pw8l0869iSiMYsfstsTQfXWL3nLRzTXSXvKJCK22f//TBYJppsyVCcfrZtpTUCjTMzMzUDRT7amsz1DQO87YjqNg6NBdwho3YeYSPBvnj54uOGae+p0QluegWGZmFiCgZOan5vYlPsCaXhgliWi8jhXocAVq+M42M/bVJy8k6KNfFg3NiB9hsjwsnCFQLLMYC0gwsZUE7TbZyllaEf3iiBE9KeEL0DMiKsyFFK92sWhsuhvVtRP1AwZ4uszO7oOYnZ2ZgXJZ9N5i4Xacabf57/ta1YzNeGLqZpq5P0jzas8VD4+OTJKJLqt9aLosQLEsLkLBwAkz1Z5GrysGJ5ulDBqlFp3gyMaFYJNikdCiexJRaXcHPxA249WcHWKNZpFc4HRZXFxGgoELCWpeU6W16AxmA9QhGA+KUGfqDY6nGAqigcCYLvypNKih4kH30O33OOX5FK1293c3kz0l+tNyonGpGSwXOF2WfblMtft9VxAkVcZQfUgRCAiqawg91zDgrwaBNuS0FkLP0Tw4GFaz2+n0O1m8mspvZscKnh6b6MwJ58uiP1/mnf4xXrBKsPJWwp4VvBWVvFTGkpBcnAxe7UVQN7hN2ADbnTxlv+jrl32BfpkBUq+mRez9HNhuQhPWvP/zsdcxrUa5nU4XZPBqb6KPWLVW4ZlYDgVC08bzGJHYj5ABA/cjeqhxJtyQVE7Im+VKzYjbbZR/VyNmLuOQ8IwgaN2+CRrHk/TRcW+f1mm+cE4g9TvZeN00MnfhjEGAFi/0BNCto2tNEys8CgWe0kNmeAmwVvQV29+BHM89CO1BTaQMDaBPv5kUzPeC77MCV7QRU64+WbsOTxhs8M7M+NMFotYSgOapD7ykYsadQSe1j+N7L8TMVTTatweRdeNfMhuQagSXYuaRVdMKlpOwGY+yzdiH3EYkGew5EusFxeZ1EbAS7w2UQUvKvwgHO8twkYQHUf3fdRUuPz60BxXoTDJh1OBinFdLMCXApuX85eRmBXPGCBxmmEeYmpqb91+lRAYqDIoLvcEGieXqvnUb8QMCG6MBFVPEHmR4AfnZkVlgPbzqS2X1icvpwTD5y4kDNSvnrfFgsd3GAZh2e242fFXh8PTXY+aswnW7wbj9W+vZuHBS8UMnqqcFHr5hxR0l6tXDh1cRnrqS42M4YrYmUSZOY7P75lG4bmp2EH3VVsmajrg/dRne/2BJeSqHaFxdqAlmLMhNnEkhFWDSX7ny3ntXrhZoWZuTMpYTEn4JGnubMUiHd6EKJTfbUyjA4LwVjpeUTpaYI4AGiuPBt9yIcvakWRvN26MkLmWukH26bBbROKFp0NXH4kIbkCXG7pUuuMjwEzjDp9Ui1q/C4WlCFdBkmyG1nLwd74tAY0MTzd9M3G6G0nO63b7gDzM0c1lewNLUR2BJIjA5KUsEOxzIw5DhTKCb6P47DTpuQLAmLatDhiGZYlCRBGau4Fk31pa1JKXS4XIKp49WPolzXEBro2UIErrxOG2DQGlxqtNSPBcXGn5CYHYFsbu0xg1QLz+PtGA/jPgBRTT2tmIAnaN9y1mjhcaU5vo2Pk7zgdsxptUAF4nQO7SAjTlb9KdNrh1y7vxbK4feOv962bGZHFmqsePJk7B+F9tz0IRpz83NZtBHQ6hulWCnqQ1dwbPbhIhe1NHMbjjucOjtWLka98RbHoG0cqiAJYlDkenU9twUC6mubcBgyufVptpzScYRrh00WVi0OBiHp50GWVNQQla4Tkg0l5UEViHhidwshtehVPb7vNovSo+R1cRmQluNW/0OoFQQrUbco7hgGijlicLX6NK8tx1TyLiHNi4T+AEMtucMmhhjrCm43ZzZci7Oq5UXDFxGXSOxO7XUCl+vjKk2cRuJO92eC09eJylPQKlZNG1poUGlQJsFRAq9kViciHVjaIxG005aNieeTvBqpZcSPq3Mx5fTONXvPo9Xm51dIPTRjP9OC9tprCnREp4PZhhgtTjsOnn/g8onVLcg0LgoPNGM3+LnkwRSlUI+OFvrrYTrmEFjbxPabRKWQuE6LJg54iQ10f2H27GMAr0WnisNX/tKGpofpjeBuAbJMPQQiSrArcuPTbFocp248GACFypMmJo3LiO6beZmEW0RhIbFYUw/vouIWL3WBKYcyU4mew9ZK15UwSButGT6mhgjZeM20JJimh09i1d7sEKBoy97hZYjy2dM6jfCqy2SAG97HjA01+LV2PkM8j8BRZmCtQH3HygdObpWrOyUnlav0xcy6rIe+OEog2aNqDtqjCPRIeBJlkNeTegMpWbAidkY+tCyTdO0OW7YNJsQluWoZusY3ZGahCNClJHDH4P/YAqpZQRA/FKv0+kPX7w7SR/d/VKrqZQ0RGIsfpRCyMwi2iIWUrxau91z/Uv1YEGYrgGlYYpILgQWp2s93pV9SlFXlGGz4RONSsMHRTF1CsmFfiGDV2uYLYmmJSiezRRFgg/QaTUQB73tMXF/HRFebYGso+EwK/pTY7x15MeMbLWmogQe37VjcvgvxpJVF04X8ObX7sKk0V3e3z2IV8NgFSgejpY0s5ErntSkoMKYp8Vts/pFepfwaoHenYXeh0unpybrskQEZHGzkqwQythLqtMztwYdZz03xU4XgIspXu14PPLNKE1D4qF47Kx8xYyjOzVvo6YyA3n629euvT3SImN9+ijcp5HFqwkGnxqH0vfmA/KdW5yuBsa+wOuyk1Z/ZCtCEmsCCw6P3ZPi1TLDkqxiCTxcXI4ZFU82rxYsJyGVh/T2Px/EePdagQDyMBvyaguYVyOJZCbPeMGlAHbNjyuApsvpgOmG7zGSO4ybWCGtpoTWzcuX9sZw/M2iodV1JB5ecGx8P/Lymv3lpIuxZcz86OCBAwe+/nX44+A71ecMO4cFQ/yA6akp30FSXFapRS/VgS6zTgSjcxqXSFnmHZkP+XecZkXuNatKkf3mJ5divNreMlqBsh1B5njB0nMDmCTmyUbVL/XuQSiUf4KAojl4sDq5vTxHEg+R4zgVTa+DK9YMzXuSHWZKgHBK9ZqohDYEtnHtWg17Ds2IPQgMLnYTqZA+QrxaFZOMkR2BppF4soRpcxIVyyJ6B4oFCuUb3/gGlMyBA+9WOJOHZZ9XQ3GGaNYhIhH9YLe/6VgtgziTgugEjqSvcU3OrXFS5GIToXJ0dVcO+1I5/Fo1zoNcMwNnD81LhqUkZg8l0Ta0fr1jvo3EAoXyyCNIMnDG/LjSuTAG0zgs1W7PTcXDL1iVogLFIFcBOEMiDaEJWn4CkxfHZSyVl1w3nMu6mJXYcvm9pw6vrh5+6uEkCbsZYgdrmJpAc2rcKkTLyTCayMslYnnkkcceQ5JBghllWxrsQ3l1s6k0eBPHpATe33ia0BkR0Hxw0NV7DjaO7NoCmSisMPSSvhtcHtNjXr569fIozYZSwGYPTauBVWhyhtbvO950gVJBeAQupQMHR9mUcoEniqWq+BK9hG64FeGkBUrD4U3aJnG84CtyF84wVpK2O86Yzy4g8ajEKoS7ZKfTYX98EInlkce+CYFmDJww/7K9oxF1FMeFS6Lu188AzsI8BeLtOXso0slqNUXs0vT2p35tml8HrcKWJKNOEO6PvOmC5fIYlsu/bvNwuuQ+ub2QJOl4O0LDEXtZ1pbpDo9tyzqJoZylryC5dN6JyOWbRC4j7EgFoFwKBZw1aDM5Nd17CRWh1U3J1QQZ0dMJYJrJ6mb6WFtB8fEo3TJkaCNbOMPxX8Y8X3SkcXXXC3fgvA0AXzKHvNpUNA2nO8RnTKBujU4t7w6fODtKu8Oc/DpKdwSew1YxPF9DcDudIbh28ADajpBgHiP65eAo+mWwb36qPZ/ejxwUcVdqTs3TFowsANeROQ1tRWyPSEtxI16MpAZmRZ3vZJFfJ95ARVkrh87/tOIgkwfDAsFuQnB+uB01pG6HAjbZj/CGRNTuwbcrni5qv7TjkkFxXMyKBOkaCt3pYi1r82wojiBdSqvFrATK7aUs2vfDfodvVB6pd1gdOQa04MQdA1aDC1gXKWzoIAWDBIOALd53KwciYvZuJGEKx/X9ckVDQ9VqtFVTFGKtad1Ifh1xEppiygvRh8P4xnQ+QiA9/WyljA0DNJCty8lGlqekqIiTDLJj8IRBBq/nCFSfLnn+EQPnQ1g/ow+7aDvGSQsWtNyaqhNNkIQLTslO/2p2o8kHv4j3OywsPwrBQutWortSpkAwCIfdiARhrvluI3EcK2uXeo4/DTWun0CmoDBKXYFOkOZdujaEF2tE7dlmL7e8udUNBHY22e/wueLBQYMNCgTNEGju5xrybIskWjixyoofH0RRBoQDI4jFj78sJOIvjuDVz5hB8ThT0/wZwpuGzETLOgVJEXMtOVaCezYOMf0yVZeVc/+JQHDYN/hEzkcVlbCQJFk+grffRQEYFH4ZQeeyc0G8zs+DRxPGMCR4/xutWLWa7qVi4qhCg1Y12Zu2RN0WpNJRIt09hvodpni1VL9DxTTgJiO1zFQcPNPeNWsea2276dDntXdQuO6dayPk/WbEdxfgEFypYUaa/pARc6CFFovuZV3qQwvPkaA6uCgjW+33XfDcg0le7b4X/A8wetNQaY5vmXnzLs3S11tBplJeOmJe55DNkM0HdHlJSN59CtlVNg3McHw2dwxKK5y+Zn6CAbJCjcx+hww0VFUaOX2bMiVxRGj87U9fzeKPOv0hj+kwD6QUC8oK/hR7XcGr2OJp+GKvp0o8Ag0hu0Ma/5ICj72WrLosXigrkLj6aNbCtA9t+0vZsvjGVscVTIYNCvYYps5CKw7V8QGuydmEhAcNAwiq0uWjq7cuZu8aShfxR5hXu8v/cRf68VL5oUb8ANYIU/0Amxn+2iIy+WlW4jQpXl5DDFmscYMaCRzObbgx2h7wqUEie9Ax+lABPHdXVr/Dsgij6nKUuDfHUk4RrcuK5DM0aA2VxPJN75LJSlYIBUDqxn3rxpaYWlThxqvBba+ZEIV+XDx+b5JXexlURSLRY1z5337+S1BX7uW/kKRUU8aXRZSw5S9jW0TWbd2TRlOIZrBG8ocwrRa7mT9P8mp7KngCKA7EGPFFM756gUU/X2ohmS9lEXen4agutg0i9q3e4yN1NpoW941QeJM1s5oJXUzwapeqxL5poPByXH1pY6wvyc+v84ln01AMWopMCYFvoLKGIICLvaaIL610OSm7e8GbT8TK1X5SZaCOmEg8HIvCDVBHxUdhPmas1Aa70za+KSJKCbPJ+JAAJC3isJB+hhLyvXETyIaUV0H1arTf4WvlQ+OMwSUdsHEXUNQj+bvtQeJNiheQuiDZYXBnkVt+dbAT1bb+dkVzXtazludGXl71GMfVw1dLD1FHCyjhB0yg4GZfkO+dNrDqLu+AIKe4IbY0Wib9L2OZdCJVt+B2bAcUsZlX1qtcffgpiNVXS1PGlthCMyMmhwkVaA0Wc+oDUIjb7noeUZ3HOzQLXSe0pNgwf0sXep53HVDajQxHzv+0ZdllbX7GyGrOO06FWwqIOeNNnLQaqw5GJWpCA5ccoSaQDhV28AhI6RQ5XR1KJFksnC/l+hiPE1DFklnRkh0ucZkMrUk9QeANnz4J3vGTGKQtZh1bYvQAwcLc+Yo1Wve1iC7SQnLqm44sGT255clLCRUjKxMW1tlCARUlJAI6/m1Rd7zCEZq5JFcBlysqkc5acDv20qEUUbdoGndvMyNSaJAkqeycuxLQeTXpgZJJMuGKWHYwSBkT0I7FNi68++Tq/E5sCurJzDBETNiF1pEvBcyon0Q+TGXkaP70/TfeeL2QPYILKG3a4Ok4UYXL7ptC9dPteP100wA4Myya8mTWTLgZ4Wq1sI81T4w4U5W7MUqA+AbJ8Oa5Q+Q5Yivv54yGSS4g/zTjtnCTWJwL6u0XwldtCSCNG0t50g2aPpaOsARGHCsfk6ONrLFvEAtvUs+EvNpbWWSsTau5ocfJKtwFXJjlEWtTvj5QaESMROpn8HaMC1+9SFQ9vKthCY6ko45dYXmNQDOhHw4PcihWl5Xq0uaI+S09mpMtKZ/N7OdBcSYfSXmyoz2ZCTUb648ZctRI2+AcVe/jqHWFEtQi/jLOH+2PCYEqbAGj9CbaUNXr/xL2O8T9X1hR0IBE1G06jAJwBms9dhHBcvMkBA0/sksh3h+VR6Lff3DhoYfuQQK5x+PVIoV8Oi0VXbimTraZx3R7ajqS1zxP+gWJounglKfMMAoA8QI1jCC8Gdp3UB3JKOJni6bEdxqATT9HzFcxRQsI7ICFm91fSnQNaN0qrTCQmYblJpa7nwhfj3X1MHH3jyaH+KOzFx5EDBL5gcuyCK/WEGrFTiRWuBMtskf9yKbj/Q5nAN2rOXCitIoXNDNMFFf4LaYaiSJhyuGlYafTt5/MfI6YTWd1NYmCPIpi8v3rFuL961qIPyqRis2yQjzp0jficM9Qv0EiwzAsS6EsyW5Wv0NLdDYxiX0Ld6JdlHL7HaoBW5bJk9HwPZdXObfHk0/yvCyr0nAoyKoq8T0h1hpREHr9ftfI4tU2jcIEFu5Et6OMfodTQA+c5CIQP0CJpxEYRPs2k540KkABL6T7HW723DkmVLgT7V+3mNNPNd7KOxN+vlS8zayXFN/KShLK63eYj6iFO1GrLt1/d87vv4ucwdymxDFotaivQLYjKUNBKel+h8W82g6GFOZxv+aFCK8WlUTUck0i2r9OiITyvMJyPmMl/iwpmJ8XDS3RZmCyff2i/b2ns/p7k65aWf3BoiF/Ro6U8RFzPoPCbxz3niO2Fz9H7P5LRW2skyGFCT/PBvpH8/OkHXxuP3jMVSeXFBu/biXCmxBq0k2vwZfj/Q4LmBI2VUc/6Q5t03NToT/dzqe68JKK2hpJu8MOKUkTu9AZz2y5/MRqKbGY6UDfuPvgpDDrxV+m2nPTxTZW6AwCkPV8NStgqXEJDpUhGPu1w5hZWz38XkExeFabpMl3+vafTzJd4vkkOGRpoXuX+dy5gKWuIys1s22Q8+p7UChXMppj+sju67IjlBF6nk35TxfsUqwkexMehTezniKwKXacNNsKKIcWsw0/xo9mofBms3KzjdzGJTvNpZUFIygGndqlEHzeAHHUTkVurZkbw901z53DdZ7ZS8rzDVB406gUZyt4vNpk+1hvAxpZvhTpw8XCDUotEbLwMLE+huMEFWPRDP85uQFIV1rJAYnw1Yn3n3nrre+/n0GsFTdeG2tXtm1E6nlZOP0jIhuWR2ErRwLRkooT51cwg7Sy8kyCPtqsU9Rueb59VoFHzPDzWnnYtYhHcPZQiJVYi8x8hethsl3Pt4AcXRAYfgjIN6DcwL67GO93eC781uaNQHeL6il6jntkl0IsNWeRTZbdn+h36C+lMgp31+zTxRsn5cjektK4RkuWBGjt/SLR7/Ahr5CvVKfLXfG8z3Lwl5QgOd1+DzQu3JOsy0IBmC9CY+ptBFPOYMPEGnqeTd/M7ndYtpXjhJ/DMTKK9EscDUdF/JH7JKrLwrVZfoHWA8+Xf4DwbtEvbJUAWrcP8WKaV3spp2ApAxN9/tFWUCF1jjX1BgBZ/Q7HcrodRWZcqhCZzxErjd1i71aXS5pXK25gF8dEn8c3UTC5zxG7k8BWV4SvHE/0O6xQ3jjZ531uAeX36RA/jz9I7FKVqu/dsk8zI9xA5VKMV6sUgtt18boq0N8LGMfVh+/MK00+r7wkrpLniB1+6tWKAZUJP698ZIyiXxDql69euXL1cuWGErvFfslryDIu7Jp43YSfZnsnxOvGgd2yT4+od0fGHRSv+1KiZLxu2zDh6TkyvtIv2agUr9sG7Jp43VfIxKTX0W6xd6vH67aGOzde9+XApPXunRyv2wp2yz7NTDhB8s6MYn15MGm/8U6P142KceuX6zdTL+GGpkdOVjxQfgDtgwE+DfoH3D4Dfyz9Kv6BoyOQzflhsKVjnTXvVzb+zCw0xKVvlTv+kUdTL91Ah60sl/yBfnsZgNOPEk15ervkkhuvW/qw2bjh3ezr/xZ95zS6pApyWe/++SS41T36Obj+KLj+nSMfbgywXG5vbCwfQa+AW/C90/2PimopCtaRJ5dfs0s3NtbPgNsf9X4FltaP3gSnhvC4EEfBUn/9JPiYBTcG1z/eWAM3+pveldx1hK4eXvyvB+CW+fFvbh7prG8M2H8HYH3p6Edr+K3r6xs3kXh+C44c3Rgs/XY9vWSwXB4fgMfBqZvg1hkoguufgFOowObIyaUhWPoE/A7cWoM3+fTN098pHGeB3j310cbGP06C34NP8Tm+BZb+A9xYhjL49hr49hqWy+0B+Gzw6Roc7W8BPOV/bl7ik3sbPoBXyf4OfDyA9wNezxH45xPwBwD+SJYAPMUHLPgv/Ca8vKVPlv6UebuhXOCX/g5OrcGJ4cnFW0enOx0kpI/BpxvrR0+errqwAnjz5fdorKfPwOPAdfT4+vqHa/CNU0QuS73eX+FAT59Zgm/8hj066qkgbkO5LGG5nFqG6wgN+1dELv46ut7p/al+5OSttSP/vb7+rZyFBeXyZyyXZfgrlAuU4Q1vvnyCDnKk/x3wKRr8JnIpsOsCucBfTp+BNxDK5X+8Nzy5fIbuLlhfH8CTglIKJ9euQzoF/v0slAu8CiiXPwdy+QsAfxksbWyguZSrcOB7vwHgr+DTz8UPB0sfijc+Abc/HyAxLH3o3oDf+esaQC+vbSKXAv3yNyKXv7DXPxL/fgZ85t76X3B6Q+yzf/Pk8kdw6/Ph42vgNhTKrc/dz8E/NpdL/j4Nj/C7AbyIDx5fXvoTnBPiZzfBjeGt/wPX/9DEOv/GsS5UHZ9CodwYDh+FizoLDRu1ELfgAJ0B6nrTgA4ZeiqnokOVgYK2v4ZjZDQdvVCEAr8R9VFS8Gl0R4En0RQ4Pl1jQJMFuA8+GoBtw0WGFKDpJJuaZ6LAbzRx7wvLtBlg20dONk30FBd0ziYcIwv/dRSTgWoTfai52clOrWW+vHQrvY+PC0Lhhjci8qb57ZL7tZVtf1Bl82S3IS7lVBFL2XidkhMIbk2IN/4qXvcVqmCE/LotYbfUw5ZWRNuEifbd+nLj/wGlt3vAqJQK1AAAAABJRU5ErkJggg==;clipPath=inset(0% 2.69% 16.3% 5.56%);" vertex="1" parent="1">
          <mxGeometry x="488.65" y="82" width="84.49" height="50" as="geometry" />
        </mxCell>
        <mxCell id="LKAqJjBEfYWG2EYr2-bb-4" value="" style="shape=image;verticalLabelPosition=bottom;labelBackgroundColor=default;verticalAlign=top;aspect=fixed;imageAspect=0;image=data:image/png,iVBORw0KGgoAAAANSUhEUgAAARYAAAC1CAMAAACtbCCJAAABFFBMVEX////H6KzB5Pf/7Kn/u7EzMzPv7++Tk5OPj4+YmJj5+fn4+PjK7K7s7Oz19fXx8fFlZWXU1NRycnLc3NxsbGzFxcXMzMyFhYVfX197e3vi4uJ1dXW/v79ubm62trba2tqenp6mpqaxsbH/8qxZWVkAAAAsLCy41qAlJSWjo6NLS0sfHx9OTk49PT2qxJW42eusydl+jpectcKDgIUSEhLdzZaWqoWAj3WLnX2csoqbk3STqbX25KSkvZA4ODjp2Z2QiW9sd31veWd+emnPwI+UeXXClI1qcGV3hIq926NcZFVKRkyypoCpn3x6hXFqaGF4fHR1ZWOphYDMm5NocHUpMjMcKCnfqKBuZGOGgGwjHBdUXU3kVCklAAAcoUlEQVR4nO2dCXfbNrbHkUXiIpPiDnFfrCiSbDdJ7dTpkqTppEk6TeuZNvPavPf9v8cDwA1cQJEy5SRn/D+njReZIi+Ai4uLH64AuNWtPh+JjjMd7WJzR5JHu9inky5oH548effB3kjXvpbonV/99OzyJx96I9zZJ5TuPnl8l+jR4w/8NZs5Ub795Yjol2+UL9kw8atHd0s9VqxrXGuqfXN0dCfT0dGz89lot3nDgt/frepdsPe1nKuHhVGIYR4a4zmsGxVXtwqyy759f678UrEKsssvijjq7d6QzCcNq9y9+8HZ72Luw5pVkF2+Oh/3hm9EotJilbuP7L0uFnzTsAqyy+V1fNUnUvJ1m1nuPtnrUZQWqyAZY9/04dXaWdB0xO9xLbOts+DuEo5+2weW0+ZZsJQ9LsY3PUvqXeLR7/vAYowhNIqGOF01HXJ++xi6c+eLc7qbxwyzfD/EuSQPJtAE4C3DLEdfkHMRhAhp8Yhhlq99ge8rzlhN1icr+yeWWf75qR+2v7STNRbTLA8ieSr10zxeT5BOmGa5gp/6afvKcVf4UVbMQXS67D8ZxRfkWkuWWWyLO+CjjKZQWETOCX6ULcvlvlNPLKX3WhqS7vIrwyoPebDZf5k1XI7lWerQBEnIGRH+Gx91l3X8imEWHyhQXPSdjmbYxivlq/YJ+lu0xII3Feqq3NV371+//+2jEffPkKi8Hed2vFitTkK73bl8HQNvoQK335pxqgSr1eTE+73dLG/n6DXansusYXLs714eHx/fQ/8dv/5Hv3gJ22RefKdJcPtAUtvjuQ8zAGw0r0Z9nILqi4DTTh5I523x3NFXAnnV8gaymN7bl8f3Ch2//jDf9RcWtAN6vEFLdoEuArvN6X6foFfwHnoeU9t5LzHyzQ4H59bMaYtcjq7SexMX+z5sbyU/UkbBdnmpdLoYy1aCquHiBEDSreVF0yqPiS2cmJ+i/y92OC+IvamhR+S+njUTC5dm9kLp0FGdWbMK0g8LVnZQtGwtqHdgkwNy1g/UD3WrPFLSaxkzvDISFbXjVmQDrwMDS0itDuurxaNn5QAP90tX9JV81bDKveOn7QsPE/pe02D4BmHeC3SlOo6+VrI8o2cGxOXChHkrzgKbQzSAn/1AuLxDGebozu8b6tWeMPBJB+n8adMs946/a0yBMw+2TyVz1Aumbvmt/aScjx6/K8M4NEuTfxNWlOql7W/Pg+LNzavnOOuP89tHR9/W0uXRAcMX6R8tVkHDqOocRc+GZnsaVVyi/0F6wrTcd98/fnT30ePvP0C9/DEnOamNVKN1iApR+lsBUHkIOb569vzhnTsPn18qcf0GYNeAvJ6ip21WuXf8sXzQWaBBk3kB7J7ntQ7geBFvw9isOCGJz603VVrCDi17CwXom8ov1EQ4P+eCtuyTe7DwRWu1yr17rzMXICd+h01Ql8f9Afbap3BB0Q8aw7GwVGwBu39McnqgjQCxfQzdu/cSh15yokC18515bLJ6Z2HI9ICXu4Oo6i9VI3sXFP7IA6aY2bL/a4dIas7OmVwR9ZNdgzchE2a/zkL6SrHPU4nsSi+szcFGB/3l7A4Q95H+G8Msxy+WuweuRXyo1HemFBwgFQZwFoUx+WLONpFbGRanqQfJvjjfsXrLr2c716l6Oi339gVT9Ahc4TpFJf1SVkpvqmAPO+gBQBANe30vsX0L/8IKtM417zx1oE7/rJA9A/TsSyI7RykXEgIykDvUiwqHABkM1kwUbCYySBYd77lMww+7/3NYyA4WtUBHPsUsA0Eg2b3dNy37ADtHAiNu+U4HLm7YgGmYbD05oLMAEtVr1JjTz2i/hKejaIjDzf9u/PAlbJ+KfkCOj7dIywXLVsPY2SzlD2FONqhhJap/uCb1SGT23menDSzHD1/cl22d5b2Hw9IgDTPaDCNkMZ4+KN8sY0Nvclc+XaIOZxTBIo5BzIEON7vs+OGL0+J0j1+SFrVFO2tLsw5oFf7fGNZQLu5bWY9Q0yAmyi5FVgZ+61/tlDN+liFpCV2uiN9AAUmRBDN9er1aRAvDOks2/aoRed/8GunKmawjpX028bGs8cMXrmGXt5nf84FURpGWW8whZWw5mE4idralSt7FWc6zLhTt7TyDze7XDFT88QfKMMdPi/gqFEBAzaeqln4jF30ojIa+V4I9teyDBb2uEBXdI6N0zzGExXctaPdTqLy/d0wsc3z88sfzcgbVsiVyLlXBE+qymHyUwejjjIyYzbKWReeJpc3rJJbcPab2XTL9f7x//fTp69+uzumr4/hrURkn4SJ2i0didxZZYpHXONL17PoKj4+wV2F0lqkj7dyLAEUgNa5kK4miIKz5CtSI89rNaotN/iLGY4SR/+rJk3ev3LjlRvUIZxVqQWDIoY7Y6nBn5vnb3y8vf9LOdw4S8QDhC0O4W5sR/ZPIQ08QkcGjtm60hVpOcd99/KqF4rZJWquS5iSOeL5wm30iufqmoLiNXYuf+YGyLy3CHYKn3KMX4f+rNjZMa65jF8Utb8nTiXT+IE5ftKq/VhpIceuH3SShFOOmLadhNX9j3Rastoi0SXFXXxUusl2CoHSvcmoiz8qy3LmGU9zmvnHPYOHuUszIEuVNnJOWEbKL4sYxHJ96nJLscNOHRZGLR3ur6R4Ud3JTwCFe3QE1bQWZ3vm1gimENcPsorghvmsnXTU7eWBqpZGYE+H/Lcor7kVx8zfEeIikAdOVYYUTwGGpBG16stlFcWeOJvNJXBYKZLZOM8KzRR5L7klx3wzjkd+9IdXe0Up9w9ymDMOiuFOXLS0zzxAUW0JYUfpbMTeeHaRNrjSNgrUz1avczCkSkXR2cVHrn0VihPQYh8yNnRS3WT5QlnEhWQQpM0dSXD1xT7YdFPeuYFa8oWk63XZ3Tithg0fF6VPIayfKDop7Q00SmdMFPhqURjYwS6M568maY1PcO9eENxS+pJsYplIJM6tvrV5M1ksQdFDclX3EfAtFcou8UxkaqhgovHC0/SnuAzMeuXASO3SBS3lXr7qo09aTyVqJmACqV0u35l0jtvIZmS9m3oQQhaf/ugbFfVjGIxdawBD4iOohNUZLW75Aj9KBK/MCR0ux03+Fi/yLs+IFBmF812yKuwenEN9I+OLPiRnK1GBQW564BKWdMM1ysZnNp5TkhYz/mYcLgXwhb8z893JKca+YZnnrabsJjhtBVJ1V6heDPJCvdRbdXhGUljmIom0tKhfSQaXkW5LUyMgobsYpqztHGkZLjE6MAhxkk6QhmN91tu4NKnldwYj0E+wOrGbkn+qVCM0qxT2F2XVk4lwqa3FCcZ+5DKs8TA0sBhr0ulYCSp8UTQ85ZmCqraEQb1nVblJu5qi8S47GK+vJSSI2eMJMPpDtWZX1waGLiK9D1qI2vTQWL1aTlR10UNypZoFts3MNs1ZEVQxNz+wPUak8objff/Q3jfVfnJSdnKwV8yg1hG6Sz05n6xMZuEyKm+A89DPgIDkNiJBtKkjLVDG3JyeJ1EVxF09pQpvVZ+ZNu3j2v/948+bNH//uMCcliuK+9/ptLV4yBcoSwIszG6nIJmXf8iUTDYsOihv3swrF7eebKegfeocVU9x8/CAEdhfFXUo0ea0F/wRUEiR/EOPN/Vxvepzm966qFLdBN0i2+VGYHjqeBSyoVYjl3PGzKW6cl6ywPpFTOCwaPSYUNwTTGWBQ3G0ZYnw7LT+vMh7cz/dp/bwrNdNJcU8zP1IuWYxTTqndRJy7nlaKO1sB2ahvSSXFPS9zcduyS0NqH7qT4q5Ltf2gkTmOqRQYfHO/qjfdsbD5sbGrWFLcYpH3z5d3cHvWuEI5OMIWiju7Qo3inp0UPqFYVsgG/m0RFHVS3E1Z0E9q008Z4PB1q9y//2fXTuS8k+IuSS4BjX+P1wJgh7XhXVmCNCjuckRWKW67CIJkPhtEOqG4Z+WQqlPcP+1aJlrQru425P3e/Llhlfv3/+jYloJdFDe1JTVbQhIoxCEQKu5qXmUvKhT3o3e0l6UpbjUqEXYnXYzmFDf1XCnFTWxydPSt0Sd0DbmKZVC4RMZli1Xu3/+bmTLvpLi5YiR7Gp/RC7gt6VCpmd6wtJLirsQqOcWNhxUyUZz1cHRFDr2OS7uCWumLcnJ1+fwhCuKeXypJ322gMPKLOkMze/lABEFzCJFhxByTLIr7R6fIF8so1EbtNCWNSXJpM6qDtCXDJFOAGoyt+uyQWUlWpI1a5OPM1MtqlZQdJT3hzjUuGLaV6kSKQCxjna3WCfBbrXL/PnM17rZahVDcBC+dY5ukzYSnkmx7Ry1mN3vQ7ebPbJMv0vUQuaJ3ljVvPNoaz8FHS8EZipi3s38zzPIzY+XEJi0FyQXTRLPLSBnvhQpZAjrKZouBifY8TWMT1ofALmQfQLUzMFF2GX+5lxyBZCnWLdNQqjeM+Z5NcX9YBnZtAe+K5UrXJ607eFsmRRzMJCUscZ/hJOKFM465Zb/1WgrISeT//Mkwy58MJo1NcU+aFHcYRSXricPe4QxSmtDG5sDn87DT1bI5W8BNYI0N72inL5BZ/ucvhln+YjQrm+JebO3GALGpLq7bOcU9SHgUplssIordNOCZOc2N7bwXZ9kl7gXpLSyzsHoLYJ8QSTyvzghEtHGTeK9TlEq5nQgDbmYXFDfqKcLo4DE5zr9aMH0LayXNpLjRrDavoaczrQK0PNgrAWYlWhFEBQu4LcehG47OBUrwDJexsNpi3K6ZqIviJilt2jCCY1HhsiHt1+UV6hrOA8qZzB7sdT22HMiLwQXqLMBgmIX5BDqb4s5S2gXePnPpnCuapZy9ZtMF1Sfs1bYM1M3FqGcPdTfCkz6/vkjApn0q+pPt4e1Wivs3MqEnGcW9IP/itHSST/RkXRDsse8Ap0XEJimRSeUdF2N6XNVOFxFTH2+fy3+3muVv9pGfDoob2SynuNHKOY3Vs+6SYbBwMN2I10U5xW2gq/EziuKur833lmpkF82ByOSPNofbRdKzKW5AJeVM1yA/i8lkUVDcg0sd4D/IKG4eOBu8NZfm7Mg60h4FllSVAnqE+dxmN+fov7p9gNCwy1XRCUqKW9RsPGTIoqh0KkPdbjoI8dPbqKngnNBWDuZmyIXkEYaRuiiHtld8KWp1u/y1K76IP96jDHP8dEGFD4X7QI+gGgnxMDQUVcUwdylbacoGobjJsMT4tqg4WUquvl05WLRRaDQftUN1HL1xd6LWofL+B4rirrw+Wxel+13qYiPD6vEdfsj0kQ+S6BQ7OwK6p2wUzLM21+sullFxF9UhHvxdzkd//d1rtvDcnOJueNE0F5vXllD9rV/NsLQWfZKdNoo7dSoFxZ2aAKegMoobSW9JyEt6v8Lellb1oXYtWJvFxs9v/vzrzzc/G1HfJalsBvEmaDkMTiju8qAu0CabyovmjQZWI6Od4s5aT0gp7jBtMInLKW6iakIPzLzzt78/u/z97fmu4eX5tdRs0jLROF4Sx94o+9PYfdiFdQWTt3yBNoxVnVarFDfdKtmxMzejuPODwm5qr+ky366nRFPcnbW4G+u3Qxy9qopTy84SRLilVZtOXVdS3jWKm0pLp4cH5PTpRR8Ux6zMLMBL85Ze2ciS35PiTlrA98OjYlqRHSIbmHit59hc2WMWZZ/oqMVNLhLm/to7LZzYIm/XlOL28ws3Ke52ijJZtiTZjEOcF6lKz3fMUoo7PS/jQC63RlnAqoXifpI1JDkATdW0uSi3zwoDedgV511zqtzpQ3EHbUYB8Q1Uv7e9dH7IC2Bk4YAEc9eRpwTaKe603bDpYDktqjCfc1S+nH0IxS2kZupFcbcbBYyfo2gKNV9E3jwnz4uT71M7mzg2Ht6lYlDcJCbGxRXoelkuRXFTaRwRx3kGECQWxV2xQmK056jlw9dfS8+5+xWKu4ybc7zdth/oXRQ3Mq1EV1eb2xTFXSk3AQPArx6YPSjuRGPtOxgjZ8rbRE6KIfdBYXoe1UjEMOp6td50UdwKikDpi24cmuKuTsrKerIWrF0Ud9TMNecSbgIoTBcPzpZ2YpVOOoVwu5pMziQ2xW16cfUYHjFEQXHHdGjtrHFdWKGT4hajjhObN1I5NjvnUqW4k+qYVjEdubLZFLdW+8CYNPuJKW7ipug6HITinkxYpCWmuGdC1zHWZth9CKUFVUIXaHQkUD29aRCW9gW7jPC2FkVkmYmC4qYiUkJxT1bMWty+yHXTpcwSi2OKnH5K8yr0yKnuXUBMcU/+l01xc5FAKzpLv48ubPJFZLv5CyJ/1Y0r/3PHiaFBS/q9RWKUWY3iBjUviSnu1QuFaZaFINIUtwz1eYXinsqKXKW4T9pBS0zPdd/vsATQvkpB4iy6D6iJVKDaTNdWkxNFTJiDSPeq4VU+KSnFGrRk8wjFvRbsDoq7Q9JhSovVRZxAUQ2QSsbM864T8v5GX18g85lMinsOQnrEe5n/xRR3ZqFZaTe4nqy2wGZY5WE3ITn6AlHCFHc9DArxdEjRGpR7IYmpEPokqUIwF5lFceMWnFO1uDNTlBQ3SPO62Y9PVhchiJ/vorjbNAy32SkVYor79fuPWpXiJjdODR3qxK/MO3wN+mTX4ia/zR8om/KzjFPmpMJiQaHoE9R1elHcdQV7FQtiSXIZFDcGK8xKcOTlv1X5VVy/QwbFnVc8zSluWCm2lVfGKWoAoR/hpmlZKbZR3JXnGNWx1CnuMquxwO60+mKy82LxfiK21BDroLixMoo780r5XJatNlOnGxeuYwDFnWtUx8KmuNFKedoIGZUCJW9WnGPX4k7l4Ctn5wfKQDl7C/w6SOVjB1Hc5H7GPEPUQXEvKIo7k2fzL/KvW+ostlHclUMxhpVFuHJprWxzCE7TWtyF+GEUdzxmteUOittKKIobC9ednlHkbMvio4PiTsVxmQOmrpx2fgnWXytcHlUp7i6r6KNmnjpqcS8qhYU8DZppwxfrdqulfaoU96um/9GIa8m3jIiyI8UXjdd21uKuadTME4vi9jFHLBRnFEyXzm4UFHfrNq5KKO5HTYo7lesos3pHwyEzF5tNxzGLry6/evjLLw+/ulS69wHHTWl3UNxuhpfOPb92ULSguIN2Dzj1BGjDyGxbyqIJR1acuLaeU8juUev8qsfcuc0nO9xpNG4hMWYt7kB18QDAxHKz7xYU9/Cemxaeq/9dSnFze1eNUMetZ9NBcS8gmMY240DxJotYk6Gr+DSYtWu1uK2U4h5UTZXWGAAILTbF/es2cTm2j/OzoTz0fkghHExx0wMGxXCp1903Sh3rdG8uNsX9nx21uLNhEA1DaUvSTFoWPrKkuL39Nr24sTNPbIrbNrtPNWVVu8RhtCVhzEqKG0umKO798BZr/EoTTN+COnWgdLn3DMPkB02MBDErKG5yQmRZUtzV5FZfHWKvzGfNRCSwZ1RWTpUWLpkO6S4k11euBhKYn8TD0qZ7leI+CJrQRXFjBR1USdpK/AB3h5EWuvSLfhaV35CzRAMKnmeCh/hs2y6KO1WgsJZgKXA5oPQv6Qu0+3A9nxo1GHMZXATVG/usTar2Wty/0V6FaZiU7+x/NApPW7D0RWRTmv4sAWyxgSVzpVGPq5XqpLhzmUa7YUjKO/2ksj4yitOtWHkt7nIewQUHhGHZ2IPtICYtc/RVIwq32nsMScf0DcJwuZPSPxZ5OCqyQ0tLeZDTHTXzVFWD4v7hqq3FVKMlf0ySd1bPExEanZKr1+ImwkG8NmCvtA2mHE31WtwLRj9uMwzZxOvXk1F8L+avFKuHZMqKjd6Qz1bZ7+ROb4UGobjxh3AeP/2xoyptXkCYEt7yNXvF7JFTUNx0RU+iou8gf9PfXRwcpjS1jxnFzXeHAWqVyQUpxd2IM0Vdl+oRiFJS3E1vFGcuRedBUr8DKXRaJzvt8DAlmFtBknjdH+lFVDcM9gfVdJQqkFrcH+wNfd+oS5UUd1NhXgjVEWkCYBakFPdVk+K+CZhyiEKjQXFT2cvQpShuqqCukVPcWvtKa54t2Rd0pJtcfVtS3NW58CZgyoEKXQpWxinvMgnJqsUt8bOU4j5lzql+SnEHej6zSUaV4qYLjt3Ah9nuIcmPyo6wmJZbhKxa3Jzs4j9Qu9xkSnFr+cVaKO5yVO4qy/2p5MAi9YpaLk77AJvi1sjqOeju+RnF7ZEuNr3qqMU9ckp7TEmQzwyDxjnxk+xa3J6FuwDcFfilFHdaGq2L4lZvAqbcWxLMKW4ziqHaQXG7Qo3iZmiGX2MLgiJ1Udxjp7RHlwTT6EHTTi5MFsVtAcnm0YK511IbRXb22frCMZpGwSJzXuuJt89Lc+hKQL1YTdaJ32oVTHFzp8Dq28LBKS5K3NiXz7tLeFMw5XU1h/B0hQtfsChuA5yYcW9vgCnuyepXNsV9MzDlCCIU92TCIi2fcEvYOyRNKe7VKZPilvcqkPIppFys16vVimWWr9en/ZcvGcV9xQJQ3YGfQvcJ5ZgJ7591UNywWou7QwKmuFfrCybF/X8H+NSqg4pnmeX7QJ72lRyfrC9ONzrTLDso7s9PMZPiHjJzJGckYvb3o7g/Q3VR3P2VLQd31OL+gtRJcQ/VfhT3Z6luinuY9qK4P0911eIerPPhFPfnqh0U9yDtQXF/rpKXTas83nfqGExxf77qqMU9XAMp7s9ZOynuIYpqFPfvX6pV8Cc8UBT343fXy6LVKO4vIp/Akuq++7qD4h6kWWw8IxT380vjy+0qmSRP4CG/aaW4ByuMBXguJF/aAvFWt7rVrW51q1vd6la3utWtbnWrW/03SqpyrjihMeQYQi7MueFCSLgUwJTermihB+UdmwD4GlKS/S0N9LccmnfgkB2FMrHnyHSBrqbmqmVBSTJ5VTSB6ZyhWzJEFXqyCSTVgQHwGuV82nQqodeLshcnwFNdEHpgJpn4KZbACWRJBlNZCmTgoDuR4Q5KP0k8WZTQzSyBGm7BPJCAo+NH4BzR0wG6qgO8EDgOaoZTsUfuTxQ4oDogMCehJyQgAHq45LBZJH4DkFmDGbcBqkdbKRS4eL6wDHA214ArbdGPjJkA/OkW8PopENSzXhUzl14U8NLW8T3b2kCTC33nzMEXW8iadCpBYDhLaSlekE3SHYxxoOkLiYuTQNFheIIsrsgPLPyJ2JxjO66+BWZihJzlp+cj+d1orq87WmKiCxnSGtjoAkGAK/QnViwnlj8zE2VqCdUj/HrEOWBrJcAObQDnp/gqMwjPpChUpmtbs/odwFiiCwn6AgTeFiOpkNs6HDmlugQbbguWomYuuKV+CnqYJfEAenv0osVGBdtwyxnqFlgRNovJL6xE1cSJAGONWKUP84+aZxubYDHX5i66w1NgBriPJVZiG6a+gQA956Z6xB31lhAsVRucyrjH4Ps2dAVsHfE0QNdTZ6e9dnhOQYjsewYiZJbQFlAX13lSYnfhxWACPEO3BNT3+5klQGYR7Jm8RE28dmwgoRvB1UC58AXg0ePx6PuZTIqS7P7AeYBrHkhGkMxXc2V6BiDqLXyAT8Im1hn6CizxRznMHaFyJcmyJBBYkDNBzAUzXDE9QA2sxuAMV1yLQL+PvYS4eP48hrxluUIs2nwgxQAfO+JlTYgssEZfcTxxohI0YKdTRy6XnycO+jugCRBEPER/p6JBlEg8n0BctduEcBrj0bPkehhmxvMygHEAOM8QYmDBQMdVgVTHhDqHKz5LPDezWnyU1/TndtTHHD0ljHhuTr3G8YeWT2yMO07Ris3mG/P00nzMQsfmdWDC5p7+DZzSutWt/rv0/445rFcvJ+0qAAAAAElFTkSuQmCC;clipPath=inset(0% 0% 12.43% 0%);" vertex="1" parent="1">
          <mxGeometry x="488.65" y="134" width="87.7" height="50" as="geometry" />
        </mxCell>
        <mxCell id="LKAqJjBEfYWG2EYr2-bb-5" value="" style="endArrow=classic;html=1;rounded=0;exitX=0;exitY=0.5;exitDx=0;exitDy=0;" edge="1" parent="1" source="LKAqJjBEfYWG2EYr2-bb-2">
          <mxGeometry width="50" height="50" relative="1" as="geometry">
            <mxPoint x="451" y="134" as="sourcePoint" />
            <mxPoint x="291" y="134" as="targetPoint" />
          </mxGeometry>
        </mxCell>
        <mxCell id="LKAqJjBEfYWG2EYr2-bb-8" value="" style="endArrow=classic;html=1;rounded=0;edgeStyle=orthogonalEdgeStyle;elbow=vertical;exitX=0;exitY=0.5;exitDx=0;exitDy=0;" edge="1" parent="1" source="LKAqJjBEfYWG2EYr2-bb-1">
          <mxGeometry width="50" height="50" relative="1" as="geometry">
            <mxPoint x="100" y="170" as="sourcePoint" />
            <mxPoint x="240" y="380" as="targetPoint" />
            <Array as="points">
              <mxPoint x="70" y="131" />
              <mxPoint x="70" y="380" />
            </Array>
          </mxGeometry>
        </mxCell>
        <mxCell id="LKAqJjBEfYWG2EYr2-bb-11" value="" style="rounded=0;whiteSpace=wrap;html=1;" vertex="1" parent="1">
          <mxGeometry x="240" y="280" width="400" height="180" as="geometry" />
        </mxCell>
        <mxCell id="LKAqJjBEfYWG2EYr2-bb-13" value="" style="endArrow=classic;html=1;rounded=0;edgeStyle=orthogonalEdgeStyle;elbow=vertical;exitX=1;exitY=0.5;exitDx=0;exitDy=0;" edge="1" parent="1" source="LKAqJjBEfYWG2EYr2-bb-11">
          <mxGeometry width="50" height="50" relative="1" as="geometry">
            <mxPoint x="650" y="380" as="sourcePoint" />
            <mxPoint x="610" y="130" as="targetPoint" />
            <Array as="points">
              <mxPoint x="640" y="380" />
              <mxPoint x="780" y="380" />
              <mxPoint x="780" y="130" />
            </Array>
          </mxGeometry>
        </mxCell>
        <mxCell id="LKAqJjBEfYWG2EYr2-bb-14" value="" style="shape=cylinder3;whiteSpace=wrap;html=1;boundedLbl=1;backgroundOutline=1;size=15;fillColor=#CDA2BE;" vertex="1" parent="1">
          <mxGeometry x="488.65" y="320" width="111.35" height="100" as="geometry" />
        </mxCell>
        <mxCell id="LKAqJjBEfYWG2EYr2-bb-15" value="Replay Buffer" style="text;strokeColor=none;align=center;fillColor=none;html=1;verticalAlign=middle;whiteSpace=wrap;rounded=0;" vertex="1" parent="1">
          <mxGeometry x="520" y="422" width="60" height="30" as="geometry" />
        </mxCell>
        <mxCell id="LKAqJjBEfYWG2EYr2-bb-16" value="&lt;svg xmlns:xlink=&quot;http://www.w3.org/1999/xlink&quot; viewBox=&quot;0 -750 4770.7 1000&quot; role=&quot;img&quot; height=&quot;2.262ex&quot; width=&quot;10.793ex&quot; xmlns=&quot;http://www.w3.org/2000/svg&quot; style=&quot;vertical-align: -0.566ex;&quot;&gt;&lt;defs&gt;&lt;path d=&quot;M33 157Q33 258 109 349T280 441Q331 441 370 392Q386 422 416 422Q429 422 439 414T449 394Q449 381 412 234T374 68Q374 43 381 35T402 26Q411 27 422 35Q443 55 463 131Q469 151 473 152Q475 153 483 153H487Q506 153 506 144Q506 138 501 117T481 63T449 13Q436 0 417 -8Q409 -10 393 -10Q359 -10 336 5T306 36L300 51Q299 52 296 50Q294 48 292 46Q233 -10 172 -10Q117 -10 75 30T33 157ZM351 328Q351 334 346 350T323 385T277 405Q242 405 210 374T160 293Q131 214 119 129Q119 126 119 118T118 106Q118 61 136 44T179 26Q217 26 254 59T298 110Q300 114 325 217T351 328Z&quot; id=&quot;MJX-2-TEX-I-1D44E&quot;&gt;&lt;/path&gt;&lt;path d=&quot;M26 385Q19 392 19 395Q19 399 22 411T27 425Q29 430 36 430T87 431H140L159 511Q162 522 166 540T173 566T179 586T187 603T197 615T211 624T229 626Q247 625 254 615T261 596Q261 589 252 549T232 470L222 433Q222 431 272 431H323Q330 424 330 420Q330 398 317 385H210L174 240Q135 80 135 68Q135 26 162 26Q197 26 230 60T283 144Q285 150 288 151T303 153H307Q322 153 322 145Q322 142 319 133Q314 117 301 95T267 48T216 6T155 -11Q125 -11 98 4T59 56Q57 64 57 83V101L92 241Q127 382 128 383Q128 385 77 385H26Z&quot; id=&quot;MJX-2-TEX-I-1D461&quot;&gt;&lt;/path&gt;&lt;path d=&quot;M55 166Q55 241 101 304T222 367Q260 367 296 349T362 304T421 252T484 208T554 189Q616 189 655 236T694 338Q694 350 698 358T708 367Q722 367 722 334Q722 260 677 197T562 134H554Q517 134 481 152T414 196T355 248T292 293T223 311Q179 311 145 286Q109 257 96 218T80 156T69 133Q55 133 55 166Z&quot; id=&quot;MJX-2-TEX-N-223C&quot;&gt;&lt;/path&gt;&lt;path d=&quot;M132 -11Q98 -11 98 22V33L111 61Q186 219 220 334L228 358H196Q158 358 142 355T103 336Q92 329 81 318T62 297T53 285Q51 284 38 284Q19 284 19 294Q19 300 38 329T93 391T164 429Q171 431 389 431Q549 431 553 430Q573 423 573 402Q573 371 541 360Q535 358 472 358H408L405 341Q393 269 393 222Q393 170 402 129T421 65T431 37Q431 20 417 5T381 -10Q370 -10 363 -7T347 17T331 77Q330 86 330 121Q330 170 339 226T357 318T367 358H269L268 354Q268 351 249 275T206 114T175 17Q164 -11 132 -11Z&quot; id=&quot;MJX-2-TEX-I-1D70B&quot;&gt;&lt;/path&gt;&lt;path d=&quot;M35 200Q35 302 74 415T180 610T319 704Q320 704 327 704T339 705Q393 701 423 656Q462 596 462 495Q462 380 417 261T302 66T168 -10H161Q125 -10 99 10T60 63T41 130T35 200ZM383 566Q383 668 330 668Q294 668 260 623T204 521T170 421T157 371Q206 370 254 370L351 371Q352 372 359 404T375 484T383 566ZM113 132Q113 26 166 26Q181 26 198 36T239 74T287 161T335 307L340 324H145Q145 321 136 286T120 208T113 132Z&quot; id=&quot;MJX-2-TEX-I-1D703&quot;&gt;&lt;/path&gt;&lt;path d=&quot;M94 250Q94 319 104 381T127 488T164 576T202 643T244 695T277 729T302 750H315H319Q333 750 333 741Q333 738 316 720T275 667T226 581T184 443T167 250T184 58T225 -81T274 -167T316 -220T333 -241Q333 -250 318 -250H315H302L274 -226Q180 -141 137 -14T94 250Z&quot; id=&quot;MJX-2-TEX-N-28&quot;&gt;&lt;/path&gt;&lt;path d=&quot;M131 289Q131 321 147 354T203 415T300 442Q362 442 390 415T419 355Q419 323 402 308T364 292Q351 292 340 300T328 326Q328 342 337 354T354 372T367 378Q368 378 368 379Q368 382 361 388T336 399T297 405Q249 405 227 379T204 326Q204 301 223 291T278 274T330 259Q396 230 396 163Q396 135 385 107T352 51T289 7T195 -10Q118 -10 86 19T53 87Q53 126 74 143T118 160Q133 160 146 151T160 120Q160 94 142 76T111 58Q109 57 108 57T107 55Q108 52 115 47T146 34T201 27Q237 27 263 38T301 66T318 97T323 122Q323 150 302 164T254 181T195 196T148 231Q131 256 131 289Z&quot; id=&quot;MJX-2-TEX-I-1D460&quot;&gt;&lt;/path&gt;&lt;path d=&quot;M60 749L64 750Q69 750 74 750H86L114 726Q208 641 251 514T294 250Q294 182 284 119T261 12T224 -76T186 -143T145 -194T113 -227T90 -246Q87 -249 86 -250H74Q66 -250 63 -250T58 -247T55 -238Q56 -237 66 -225Q221 -64 221 250T66 725Q56 737 55 738Q55 746 60 749Z&quot; id=&quot;MJX-2-TEX-N-29&quot;&gt;&lt;/path&gt;&lt;/defs&gt;&lt;g transform=&quot;scale(1,-1)&quot; stroke-width=&quot;0&quot; fill=&quot;currentColor&quot; stroke=&quot;currentColor&quot;&gt;&lt;g data-mml-node=&quot;math&quot;&gt;&lt;g data-mml-node=&quot;msub&quot;&gt;&lt;g data-mml-node=&quot;mi&quot;&gt;&lt;use xlink:href=&quot;#MJX-2-TEX-I-1D44E&quot; data-c=&quot;1D44E&quot;&gt;&lt;/use&gt;&lt;/g&gt;&lt;g transform=&quot;translate(562,-150) scale(0.707)&quot; data-mml-node=&quot;mi&quot;&gt;&lt;use xlink:href=&quot;#MJX-2-TEX-I-1D461&quot; data-c=&quot;1D461&quot;&gt;&lt;/use&gt;&lt;/g&gt;&lt;/g&gt;&lt;g transform=&quot;translate(1145,0)&quot; data-mml-node=&quot;mo&quot;&gt;&lt;use xlink:href=&quot;#MJX-2-TEX-N-223C&quot; data-c=&quot;223C&quot;&gt;&lt;/use&gt;&lt;/g&gt;&lt;g transform=&quot;translate(2200.8,0)&quot; data-mml-node=&quot;msub&quot;&gt;&lt;g data-mml-node=&quot;mi&quot;&gt;&lt;use xlink:href=&quot;#MJX-2-TEX-I-1D70B&quot; data-c=&quot;1D70B&quot;&gt;&lt;/use&gt;&lt;/g&gt;&lt;g data-mjx-texclass=&quot;ORD&quot; transform=&quot;translate(603,-150) scale(0.707)&quot; data-mml-node=&quot;TeXAtom&quot;&gt;&lt;g data-mml-node=&quot;mi&quot;&gt;&lt;use xlink:href=&quot;#MJX-2-TEX-I-1D703&quot; data-c=&quot;1D703&quot;&gt;&lt;/use&gt;&lt;/g&gt;&lt;/g&gt;&lt;/g&gt;&lt;g transform=&quot;translate(3185.5,0)&quot; data-mml-node=&quot;mo&quot;&gt;&lt;use xlink:href=&quot;#MJX-2-TEX-N-28&quot; data-c=&quot;28&quot;&gt;&lt;/use&gt;&lt;/g&gt;&lt;g transform=&quot;translate(3574.5,0)&quot; data-mml-node=&quot;msub&quot;&gt;&lt;g data-mml-node=&quot;mi&quot;&gt;&lt;use xlink:href=&quot;#MJX-2-TEX-I-1D460&quot; data-c=&quot;1D460&quot;&gt;&lt;/use&gt;&lt;/g&gt;&lt;g transform=&quot;translate(502,-150) scale(0.707)&quot; data-mml-node=&quot;mi&quot;&gt;&lt;use xlink:href=&quot;#MJX-2-TEX-I-1D461&quot; data-c=&quot;1D461&quot;&gt;&lt;/use&gt;&lt;/g&gt;&lt;/g&gt;&lt;g transform=&quot;translate(4381.7,0)&quot; data-mml-node=&quot;mo&quot;&gt;&lt;use xlink:href=&quot;#MJX-2-TEX-N-29&quot; data-c=&quot;29&quot;&gt;&lt;/use&gt;&lt;/g&gt;&lt;/g&gt;&lt;/g&gt;&lt;/svg&gt;" style="text;strokeColor=none;align=center;fillColor=none;html=1;verticalAlign=middle;whiteSpace=wrap;rounded=0;" vertex="1" parent="1">
          <mxGeometry x="315" y="104" width="110" height="30" as="geometry" />
        </mxCell>
        <mxCell id="LKAqJjBEfYWG2EYr2-bb-17" value="&lt;b&gt;$$&amp;lt;s_t,a_t,r_t,s_t&#39;&amp;gt;$$&lt;/b&gt;" style="text;strokeColor=none;align=center;fillColor=none;html=1;verticalAlign=middle;whiteSpace=wrap;rounded=0;" vertex="1" parent="1">
          <mxGeometry x="100" y="350" width="60" height="30" as="geometry" />
        </mxCell>
        <mxCell id="LKAqJjBEfYWG2EYr2-bb-18" value="$$\nabla_{\theta},\nabla_{\psi}$$" style="text;strokeColor=none;align=center;fillColor=none;html=1;verticalAlign=middle;whiteSpace=wrap;rounded=0;" vertex="1" parent="1">
          <mxGeometry x="630" y="102" width="60" height="30" as="geometry" />
        </mxCell>
        <mxCell id="LKAqJjBEfYWG2EYr2-bb-21" value="" style="endArrow=none;html=1;rounded=0;edgeStyle=orthogonalEdgeStyle;curved=1;strokeWidth=3;fillColor=#60a917;strokeColor=#2D7600;" edge="1" parent="1">
          <mxGeometry width="50" height="50" relative="1" as="geometry">
            <mxPoint x="250" y="360" as="sourcePoint" />
            <mxPoint x="340" y="340" as="targetPoint" />
            <Array as="points">
              <mxPoint x="250" y="360" />
              <mxPoint x="290" y="360" />
              <mxPoint x="290" y="340" />
              <mxPoint x="330" y="340" />
            </Array>
          </mxGeometry>
        </mxCell>
        <mxCell id="LKAqJjBEfYWG2EYr2-bb-24" value="" style="endArrow=none;html=1;rounded=0;edgeStyle=orthogonalEdgeStyle;curved=1;strokeWidth=3;fillColor=#60a917;strokeColor=#2D7600;" edge="1" parent="1">
          <mxGeometry width="50" height="50" relative="1" as="geometry">
            <mxPoint x="250" y="390" as="sourcePoint" />
            <mxPoint x="340" y="370" as="targetPoint" />
            <Array as="points">
              <mxPoint x="250" y="390" />
              <mxPoint x="290" y="390" />
              <mxPoint x="290" y="370" />
              <mxPoint x="330" y="370" />
            </Array>
          </mxGeometry>
        </mxCell>
        <mxCell id="LKAqJjBEfYWG2EYr2-bb-25" value="" style="endArrow=none;html=1;rounded=0;edgeStyle=orthogonalEdgeStyle;curved=1;strokeWidth=3;fillColor=#d80073;strokeColor=#A50040;" edge="1" parent="1">
          <mxGeometry width="50" height="50" relative="1" as="geometry">
            <mxPoint x="250" y="412" as="sourcePoint" />
            <mxPoint x="340" y="412" as="targetPoint" />
            <Array as="points">
              <mxPoint x="295" y="412" />
              <mxPoint x="295" y="422" />
              <mxPoint x="340" y="422" />
            </Array>
          </mxGeometry>
        </mxCell>
        <mxCell id="LKAqJjBEfYWG2EYr2-bb-27" value="" style="endArrow=classic;html=1;rounded=0;" edge="1" parent="1">
          <mxGeometry width="50" height="50" relative="1" as="geometry">
            <mxPoint x="370" y="340" as="sourcePoint" />
            <mxPoint x="450" y="340" as="targetPoint" />
          </mxGeometry>
        </mxCell>
        <mxCell id="LKAqJjBEfYWG2EYr2-bb-30" value="" style="endArrow=classic;html=1;rounded=0;" edge="1" parent="1">
          <mxGeometry width="50" height="50" relative="1" as="geometry">
            <mxPoint x="370" y="410" as="sourcePoint" />
            <mxPoint x="450" y="410" as="targetPoint" />
          </mxGeometry>
        </mxCell>
        <mxCell id="LKAqJjBEfYWG2EYr2-bb-33" value="" style="endArrow=classic;html=1;rounded=0;" edge="1" parent="1">
          <mxGeometry relative="1" as="geometry">
            <mxPoint x="370" y="369.5" as="sourcePoint" />
            <mxPoint x="450" y="369.5" as="targetPoint" />
          </mxGeometry>
        </mxCell>
        <mxCell id="LKAqJjBEfYWG2EYr2-bb-34" value="&lt;font style=&quot;font-size: 18px;&quot;&gt;&lt;b&gt;X&lt;/b&gt;&lt;/font&gt;" style="edgeLabel;resizable=0;html=1;align=center;verticalAlign=middle;" connectable="0" vertex="1" parent="LKAqJjBEfYWG2EYr2-bb-33">
          <mxGeometry relative="1" as="geometry" />
        </mxCell>
        <mxCell id="LKAqJjBEfYWG2EYr2-bb-35" value="Find unique traces" style="text;strokeColor=none;align=center;fillColor=none;html=1;verticalAlign=middle;whiteSpace=wrap;rounded=0;" vertex="1" parent="1">
          <mxGeometry x="250" y="290" width="90" height="30" as="geometry" />
        </mxCell>
        <mxCell id="LKAqJjBEfYWG2EYr2-bb-36" value="" style="endArrow=none;html=1;rounded=0;edgeStyle=orthogonalEdgeStyle;curved=1;strokeWidth=3;fillColor=#60a917;strokeColor=#2D7600;" edge="1" parent="1">
          <mxGeometry width="50" height="50" relative="1" as="geometry">
            <mxPoint x="499.33000000000004" y="375" as="sourcePoint" />
            <mxPoint x="589.33" y="355" as="targetPoint" />
            <Array as="points">
              <mxPoint x="499.33000000000004" y="375" />
              <mxPoint x="539.33" y="375" />
              <mxPoint x="539.33" y="355" />
              <mxPoint x="579.33" y="355" />
            </Array>
          </mxGeometry>
        </mxCell>
        <mxCell id="LKAqJjBEfYWG2EYr2-bb-37" value="" style="endArrow=none;html=1;rounded=0;edgeStyle=orthogonalEdgeStyle;curved=1;strokeWidth=3;fillColor=#d80073;strokeColor=#A50040;" edge="1" parent="1">
          <mxGeometry width="50" height="50" relative="1" as="geometry">
            <mxPoint x="499.33000000000004" y="390" as="sourcePoint" />
            <mxPoint x="589.33" y="390" as="targetPoint" />
            <Array as="points">
              <mxPoint x="544.33" y="390" />
              <mxPoint x="544.33" y="400" />
              <mxPoint x="589.33" y="400" />
            </Array>
          </mxGeometry>
        </mxCell>
      </root>
    </mxGraphModel>
  </diagram>
</mxfile>
